HIERARCHY
ROOT hip
{
	OFFSET 0.000000 0.000000 0.000000
	CHANNELS 6 Xposition Yposition Zposition Xrotation Zrotation Yrotation 
	JOINT abdomen
	{
		OFFSET 0.000000 3.422050 0.000000
		CHANNELS 3 Xrotation Zrotation Yrotation 
		JOINT chest
		{
			OFFSET 0.000000 8.486693 -0.684411
			CHANNELS 3 Xrotation Zrotation Yrotation 
			JOINT neck
			{
				OFFSET 0.000000 10.266162 -0.273764
				CHANNELS 3 Xrotation Zrotation Yrotation 
				JOINT head
				{
					OFFSET 0.000000 3.148285 0.000000
					CHANNELS 3 Xrotation Zrotation Yrotation 
					End Site
					{
						OFFSET 0.000000 3.148289 0.000000
					}
				}
			}
			JOINT lCollar
			{
				OFFSET 3.422053 6.707223 -0.821293
				CHANNELS 3 Yrotation Zrotation Xrotation 
				JOINT lShldr
				{
					OFFSET 3.285171 0.000000 0.000000
					CHANNELS 3 Zrotation Yrotation Xrotation 
					JOINT lForeArm
					{
						OFFSET 10.129278 0.000000 0.000000
						CHANNELS 3 Yrotation Zrotation Xrotation 
						JOINT lHand
						{
							OFFSET 8.486692 0.000000 0.000000
							CHANNELS 3 Zrotation Yrotation Xrotation 
							End Site
							{
								OFFSET 4.106464 0.000000 0.000000
							}
						}
					}
				}
			}
			JOINT rCollar
			{
				OFFSET -3.558935 6.707223 -0.821293
				CHANNELS 3 Yrotation Zrotation Xrotation 
				JOINT rShldr
				{
					OFFSET -3.148289 0.000000 0.000000
					CHANNELS 3 Zrotation Yrotation Xrotation 
					JOINT rForeArm
					{
						OFFSET -10.266159 0.000000 0.000000
						CHANNELS 3 Yrotation Zrotation Xrotation 
						JOINT rHand
						{
							OFFSET -8.349810 0.000000 0.000000
							CHANNELS 3 Zrotation Yrotation Xrotation 
							End Site
							{
								OFFSET -4.106464 0.000000 0.000000
							}
						}
					}
				}
			}
		}
	}
	JOINT lThigh
	{
		OFFSET 5.338403 -1.642589 1.368821
		CHANNELS 3 Xrotation Zrotation Yrotation 
		JOINT lShin
		{
			OFFSET -2.053232 -20.121670 0.000000
			CHANNELS 3 Xrotation Zrotation Yrotation 
			JOINT lFoot
			{
				OFFSET 0.000000 -19.300380 -1.231939
				CHANNELS 3 Xrotation Yrotation Zrotation 
				End Site
				{
					OFFSET 0.000000 -2.463878 4.653993
				}
			}
		}
	}
	JOINT rThigh
	{
		OFFSET -5.338403 -1.642589 1.368821
		CHANNELS 3 Xrotation Zrotation Yrotation 
		JOINT rShin
		{
			OFFSET 2.053232 -20.121670 0.000000
			CHANNELS 3 Xrotation Zrotation Yrotation 
			JOINT rFoot
			{
				OFFSET 0.000000 -19.300380 -1.231939
				CHANNELS 3 Xrotation Yrotation Zrotation 
				End Site
				{
					OFFSET 0.000000 -2.463878 4.653993
				}
			}
		}
	}
}
MOTION
Frames: 6
Frame Time: 0.033325
0.000000 43.528500 0.000000 0.000000 0.000000 0.000000 0.000000 0.000000 0.000000 0.000000 0.000000 0.000000 0.000000 0.000000 0.000000 0.000000 0.000000 0.000000 0.000000 0.000000 0.000000 0.000000 0.000000 0.000000 0.000000 0.000000 0.000000 0.000000 0.000000 0.000000 0.000000 0.000000 0.000000 0.000000 0.000000 0.000000 0.000000 0.000000 0.000000 0.000000 0.000000 0.000000 0.000000 0.000000 0.000000 0.000000 0.000000 0.000000 0.000000 0.000000 0.000000 0.000000 0.000000 0.000000 0.000000 0.000000 0.000000 0.000000 0.000000 0.000000 
-12.138111 16.912365 1.480839 0.000000 0.000000 0.000000 -5.445131 -0.131730 -0.156533 4.907036 -0.404969 -0.229123 0.106663 0.267527 0.000249 0.890024 0.000000 0.000000 64.170471 -36.915028 5.570158 -43.985027 -3.497859 14.668961 25.305752 -29.974169 13.131651 22.485357 -0.292157 0.007883 -64.173592 36.911728 5.569185 43.980724 3.495146 14.667499 -25.308748 29.970263 13.131538 -22.488918 0.288725 0.008560 -42.550652 6.007531 0.227227 133.800629 4.915715 -1.749616 59.025394 8.386218 2.988649 -42.568802 -6.033378 -0.321454 133.808655 -5.008226 1.746866 59.615143 -8.463423 -2.877580 
-12.138111 16.912365 1.480839 0.000000 0.000000 0.000000 -5.445131 -0.131730 -0.156533 4.907036 -0.404969 -0.229123 0.251366 0.409951 -0.011934 1.771183 0.000000 0.000000 64.170471 -36.915028 5.570158 -43.985027 -3.497859 14.668961 25.305752 -29.974169 13.131651 22.485355 -0.292157 0.007883 -64.173592 36.911728 5.569185 43.980724 3.495146 14.667499 -25.308748 29.970263 13.131538 -22.488918 0.288725 0.008560 -42.550648 6.007531 0.227227 133.800629 4.915714 -1.749616 59.025394 8.386218 2.988649 -42.568802 -6.033378 -0.321454 133.808655 -5.008225 1.746865 59.615143 -8.463423 -2.877579 
-12.138111 16.912365 1.480839 0.000000 0.000000 0.000000 -5.445131 -0.131730 -0.156533 4.907035 -0.404969 -0.229123 0.396073 0.552435 -0.023759 2.654151 0.000000 0.000000 64.170464 -36.915028 5.570157 -43.985027 -3.497859 14.668961 25.305750 -29.974167 13.131651 22.485357 -0.292157 0.007883 -64.173576 36.911724 5.569183 43.980724 3.495147 14.667497 -25.308748 29.970263 13.131538 -22.488916 0.288725 0.008560 -42.550648 6.007530 0.227227 133.800629 4.915715 -1.749616 59.025391 8.386218 2.988649 -42.568802 -6.033378 -0.321454 133.808655 -5.008226 1.746866 59.615143 -8.463423 -2.877580 
-12.138111 16.912365 1.480839 0.000000 0.000000 0.000000 -5.445131 -0.131730 -0.156533 4.907036 -0.404969 -0.229123 0.540783 0.694978 -0.035227 3.538828 0.000000 0.000000 64.170471 -36.915031 5.570157 -43.985031 -3.497858 14.668962 25.305752 -29.974173 13.131652 22.485359 -0.292157 0.007883 -64.173592 36.911732 5.569187 43.980724 3.495146 14.667499 -25.308748 29.970263 13.131538 -22.488920 0.288725 0.008560 -42.550652 6.007531 0.227227 133.800629 4.915715 -1.749616 59.025394 8.386219 2.988649 -42.568802 -6.033378 -0.321454 133.808655 -5.008226 1.746866 59.615143 -8.463423 -2.877579 
-12.138111 16.912365 1.480839 0.000000 0.000000 0.000000 -5.445131 -0.131730 -0.156533 4.907036 -0.404969 -0.229123 0.685498 0.837577 -0.046338 4.425112 0.000000 0.000000 64.170471 -36.915028 5.570158 -43.985031 -3.497859 14.668962 25.305752 -29.974169 13.131651 22.485357 -0.292157 0.007883 -64.173592 36.911728 5.569185 43.980724 3.495146 14.667499 -25.308748 29.970263 13.131538 -22.488918 0.288725 0.008560 -42.550652 6.007531 0.227227 133.800629 4.915715 -1.749616 59.025394 8.386218 2.988649 -42.568802 -6.033378 -0.321454 133.808655 -5.008226 1.746866 59.615143 -8.463423 -2.877580 
